<svg width="800" height="800" viewBox="0 0 800 800" fill="none" xmlns="http://www.w3.org/2000/svg">
<g clip-path="url(#clip0_334_17)">
<path d="M101.641 310.359C100.576 307.098 100 303.616 100 300C100 281.591 114.924 266.667 133.333 266.667C148.657 266.667 161.565 277.006 165.462 291.089C234.989 523.953 564.853 524.007 634.493 291.245C638.34 277.083 651.287 266.667 666.667 266.667C685.077 266.667 700 281.591 700 300C700 303.56 699.443 306.99 698.407 310.207C685.05 354.94 664.137 392.92 637.957 424.147L680.477 466.667C693.493 479.683 693.493 500.79 680.477 513.807C667.46 526.823 646.353 526.823 633.337 513.807L589.623 470.093C565.817 488.087 539.707 502.183 512.287 512.387L524.213 556.903C528.98 574.687 518.427 592.963 500.643 597.727C482.86 602.493 464.583 591.94 459.82 574.157L447.703 528.94C416.12 533.613 383.88 533.613 352.297 528.94L340.18 574.157C335.417 591.94 317.139 602.493 299.357 597.727C281.574 592.963 271.022 574.687 275.786 556.903L287.715 512.387C260.297 502.183 234.187 488.087 210.382 470.097L166.672 513.807C153.655 526.823 132.549 526.823 119.532 513.807C106.514 500.79 106.514 479.683 119.532 466.667L162.049 424.15C135.896 392.957 115.003 355.027 101.641 310.359Z" fill="#57473A"/>
</g>
<defs>
<clipPath id="clip0_334_17">
<rect width="800" height="800" fill="white"/>
</clipPath>
</defs>
</svg>
