<svg width="800" height="800" viewBox="0 0 800 800" fill="none" xmlns="http://www.w3.org/2000/svg">
<g clip-path="url(#clip0_334_34)">
<path fill-rule="evenodd" clip-rule="evenodd" d="M133.351 400.04L133.344 400L133.351 399.96C133.432 399.44 133.897 396.5 136.496 390.723C139.356 384.363 143.994 376.35 150.631 367.127C163.889 348.703 183.72 327.403 208.784 307.205C259.238 266.545 327.076 233.333 400 233.333C472.923 233.333 540.763 266.545 591.217 307.205C616.28 327.403 636.11 348.703 649.37 367.127C656.007 376.35 660.643 384.363 663.503 390.723C666.103 396.5 666.567 399.44 666.65 399.96L666.657 400L666.65 400.04C666.567 400.56 666.103 403.5 663.503 409.277C660.643 415.637 656.007 423.65 649.37 432.873C636.11 451.297 616.28 472.597 591.217 492.797C540.763 533.453 472.923 566.667 400 566.667C327.076 566.667 259.238 533.453 208.784 492.797C183.72 472.597 163.889 451.297 150.631 432.873C143.994 423.65 139.356 415.637 136.496 409.277C133.897 403.5 133.432 400.56 133.351 400.04ZM400 166.667C307.238 166.667 225.077 208.455 166.952 255.295C137.726 278.847 113.624 304.42 96.5203 328.185C87.976 340.057 80.8266 351.967 75.694 363.38C70.7826 374.3 66.6666 387.063 66.6666 400C66.6666 412.937 70.7826 425.7 75.694 436.62C80.8266 448.033 87.976 459.943 96.5203 471.813C113.624 495.58 137.726 521.153 166.952 544.703C225.077 591.547 307.238 633.333 400 633.333C492.76 633.333 574.923 591.547 633.047 544.703C662.273 521.153 686.377 495.58 703.48 471.813C712.023 459.943 719.173 448.033 724.307 436.62C729.217 425.7 733.333 412.937 733.333 400C733.333 387.063 729.217 374.3 724.307 363.38C719.173 351.967 712.023 340.057 703.48 328.185C686.377 304.42 662.273 278.847 633.047 255.295C574.923 208.455 492.76 166.667 400 166.667ZM366.667 400C366.667 381.59 381.59 366.667 400 366.667C418.41 366.667 433.333 381.59 433.333 400C433.333 418.41 418.41 433.333 400 433.333C381.59 433.333 366.667 418.41 366.667 400ZM400 300C344.77 300 300 344.77 300 400C300 455.23 344.77 500 400 500C455.23 500 500 455.23 500 400C500 344.77 455.23 300 400 300Z" fill="#57473A"/>
</g>
<defs>
<clipPath id="clip0_334_34">
<rect width="800" height="800" fill="white"/>
</clipPath>
</defs>
</svg>
