<svg width="94" height="94" viewBox="0 0 94 94" fill="none" xmlns="http://www.w3.org/2000/svg">
<path d="M31.4184 92.9999C35.1517 92.9999 38.1782 89.5674 38.1782 85.3332C38.1782 81.099 35.1517 77.6665 31.4184 77.6665C27.6851 77.6665 24.6587 81.099 24.6587 85.3332C24.6587 89.5674 27.6851 92.9999 31.4184 92.9999Z" fill="white" stroke="white"/>
<path d="M78.7368 92.9999C82.4701 92.9999 85.4965 89.5674 85.4965 85.3332C85.4965 81.099 82.4701 77.6665 78.7368 77.6665C75.0035 77.6665 71.9771 81.099 71.9771 85.3332C71.9771 89.5674 75.0035 92.9999 78.7368 92.9999Z" fill="white" stroke="white"/>
<path d="M29.6824 58.4999H84.8883L93 12.4998H22.5234L20.7342 0.999756H1V8.66645H15.0645L25.2041 73.8333H85.4967V66.1666H30.8738L29.6824 58.4999Z" fill="white" stroke="white"/>
</svg>
